<svg xmlns="http://www.w3.org/2000/svg" viewBox="0 0 140 308" width="140" height="308">
<rect x="65.8" y="0" width="8.4" height="42" fill="#4a3620"/>
<rect x="42.0" y="7.0" width="14.0" height="11.2" fill="#4d8c3f"/>
<rect x="84.0" y="11.2" width="14.0" height="11.2" fill="#4d8c3f"/>
<rect x="42.0" y="42.0" width="14.0" height="14.0" fill="#d3a1ff"/>
<rect x="56.0" y="42.0" width="14.0" height="14.0" fill="#e0aaff"/>
<rect x="70.0" y="42.0" width="14.0" height="14.0" fill="#e0aaff"/>
<rect x="84.0" y="42.0" width="14.0" height="14.0" fill="#d3a1ff"/>
<rect x="28.0" y="56.0" width="14.0" height="14.0" fill="#d3a1ff"/>
<rect x="42.0" y="56.0" width="14.0" height="14.0" fill="#d3a1ff"/>
<rect x="56.0" y="56.0" width="14.0" height="14.0" fill="#c77dff"/>
<rect x="70.0" y="56.0" width="14.0" height="14.0" fill="#d3a1ff"/>
<rect x="84.0" y="56.0" width="14.0" height="14.0" fill="#d3a1ff"/>
<rect x="98.0" y="56.0" width="14.0" height="14.0" fill="#c77dff"/>
<rect x="14.0" y="70.0" width="14.0" height="14.0" fill="#c77dff"/>
<rect x="28.0" y="70.0" width="14.0" height="14.0" fill="#c77dff"/>
<rect x="42.0" y="70.0" width="14.0" height="14.0" fill="#c77dff"/>
<rect x="56.0" y="70.0" width="14.0" height="14.0" fill="#c77dff"/>
<rect x="70.0" y="70.0" width="14.0" height="14.0" fill="#c77dff"/>
<rect x="84.0" y="70.0" width="14.0" height="14.0" fill="#c77dff"/>
<rect x="98.0" y="70.0" width="14.0" height="14.0" fill="#c77dff"/>
<rect x="112.0" y="70.0" width="14.0" height="14.0" fill="#c77dff"/>
<rect x="14.0" y="84.0" width="14.0" height="14.0" fill="#b366e6"/>
<rect x="28.0" y="84.0" width="14.0" height="14.0" fill="#c77dff"/>
<rect x="42.0" y="84.0" width="14.0" height="14.0" fill="#c77dff"/>
<rect x="56.0" y="84.0" width="14.0" height="14.0" fill="#b366e6"/>
<rect x="70.0" y="84.0" width="14.0" height="14.0" fill="#c77dff"/>
<rect x="84.0" y="84.0" width="14.0" height="14.0" fill="#c77dff"/>
<rect x="98.0" y="84.0" width="14.0" height="14.0" fill="#b366e6"/>
<rect x="112.0" y="84.0" width="14.0" height="14.0" fill="#c77dff"/>
<rect x="21.0" y="98.0" width="14.0" height="14.0" fill="#b366e6"/>
<rect x="35.0" y="98.0" width="14.0" height="14.0" fill="#b366e6"/>
<rect x="49.0" y="98.0" width="14.0" height="14.0" fill="#9d4edd"/>
<rect x="63.0" y="98.0" width="14.0" height="14.0" fill="#b366e6"/>
<rect x="77.0" y="98.0" width="14.0" height="14.0" fill="#b366e6"/>
<rect x="91.0" y="98.0" width="14.0" height="14.0" fill="#9d4edd"/>
<rect x="105.0" y="98.0" width="14.0" height="14.0" fill="#b366e6"/>
<rect x="21.0" y="112.0" width="14.0" height="14.0" fill="#9d4edd"/>
<rect x="35.0" y="112.0" width="14.0" height="14.0" fill="#9d4edd"/>
<rect x="49.0" y="112.0" width="14.0" height="14.0" fill="#9d4edd"/>
<rect x="63.0" y="112.0" width="14.0" height="14.0" fill="#9d4edd"/>
<rect x="77.0" y="112.0" width="14.0" height="14.0" fill="#9d4edd"/>
<rect x="91.0" y="112.0" width="14.0" height="14.0" fill="#9d4edd"/>
<rect x="105.0" y="112.0" width="14.0" height="14.0" fill="#9d4edd"/>
<rect x="28.0" y="126.0" width="14.0" height="14.0" fill="#8a3ffc"/>
<rect x="42.0" y="126.0" width="14.0" height="14.0" fill="#9d4edd"/>
<rect x="56.0" y="126.0" width="14.0" height="14.0" fill="#9d4edd"/>
<rect x="70.0" y="126.0" width="14.0" height="14.0" fill="#8a3ffc"/>
<rect x="84.0" y="126.0" width="14.0" height="14.0" fill="#9d4edd"/>
<rect x="98.0" y="126.0" width="14.0" height="14.0" fill="#9d4edd"/>
<rect x="28.0" y="140.0" width="14.0" height="14.0" fill="#8a3ffc"/>
<rect x="42.0" y="140.0" width="14.0" height="14.0" fill="#8a3ffc"/>
<rect x="56.0" y="140.0" width="14.0" height="14.0" fill="#8a3ffc"/>
<rect x="70.0" y="140.0" width="14.0" height="14.0" fill="#8a3ffc"/>
<rect x="84.0" y="140.0" width="14.0" height="14.0" fill="#8a3ffc"/>
<rect x="98.0" y="140.0" width="14.0" height="14.0" fill="#8a3ffc"/>
<rect x="35.0" y="154.0" width="14.0" height="14.0" fill="#8a3ffc"/>
<rect x="49.0" y="154.0" width="14.0" height="14.0" fill="#7b2ff7"/>
<rect x="63.0" y="154.0" width="14.0" height="14.0" fill="#8a3ffc"/>
<rect x="77.0" y="154.0" width="14.0" height="14.0" fill="#8a3ffc"/>
<rect x="91.0" y="154.0" width="14.0" height="14.0" fill="#7b2ff7"/>
<rect x="35.0" y="168.0" width="14.0" height="14.0" fill="#7b2ff7"/>
<rect x="49.0" y="168.0" width="14.0" height="14.0" fill="#7b2ff7"/>
<rect x="63.0" y="168.0" width="14.0" height="14.0" fill="#7b2ff7"/>
<rect x="77.0" y="168.0" width="14.0" height="14.0" fill="#7b2ff7"/>
<rect x="91.0" y="168.0" width="14.0" height="14.0" fill="#7b2ff7"/>
<rect x="42.0" y="182.0" width="14.0" height="14.0" fill="#7b2ff7"/>
<rect x="56.0" y="182.0" width="14.0" height="14.0" fill="#7b2ff7"/>
<rect x="70.0" y="182.0" width="14.0" height="14.0" fill="#6b2fb3"/>
<rect x="84.0" y="182.0" width="14.0" height="14.0" fill="#7b2ff7"/>
<rect x="42.0" y="196.0" width="14.0" height="14.0" fill="#6b2fb3"/>
<rect x="56.0" y="196.0" width="14.0" height="14.0" fill="#6b2fb3"/>
<rect x="70.0" y="196.0" width="14.0" height="14.0" fill="#6b2fb3"/>
<rect x="84.0" y="196.0" width="14.0" height="14.0" fill="#6b2fb3"/>
<rect x="49.0" y="210.0" width="14.0" height="14.0" fill="#5a189a"/>
<rect x="63.0" y="210.0" width="14.0" height="14.0" fill="#6b2fb3"/>
<rect x="77.0" y="210.0" width="14.0" height="14.0" fill="#6b2fb3"/>
<rect x="49.0" y="224.0" width="14.0" height="14.0" fill="#5a189a"/>
<rect x="63.0" y="224.0" width="14.0" height="14.0" fill="#5a189a"/>
<rect x="77.0" y="224.0" width="14.0" height="14.0" fill="#5a189a"/>
<rect x="56.0" y="238.0" width="14.0" height="14.0" fill="#5a189a"/>
<rect x="70.0" y="238.0" width="14.0" height="14.0" fill="#4a1477"/>
<rect x="56.0" y="252.0" width="14.0" height="14.0" fill="#4a1477"/>
<rect x="70.0" y="252.0" width="14.0" height="14.0" fill="#4a1477"/>
<rect x="63.0" y="266.0" width="14.0" height="14.0" fill="#4a1477"/>
<rect x="63.0" y="280.0" width="14.0" height="14.0" fill="#3c0f61"/>
</svg>